<svg xmlns="http://www.w3.org/2000/svg" width="24" height="24" viewBox="0 0 24 24" fill="currentColor"><path d="M12.504 0c-.155 0-.311.002-.465.007-3.61.12-6.414 3.05-6.439 6.66a6.5 6.5 0 0 0 .827 4.103c.375.63.834 1.203 1.358 1.699 1.168 1.107 2.615 1.878 4.225 2.253v3.278h-2.5a.5.5 0 0 0-.5.5v1.5a.5.5 0 0 0 .5.5h2.5v2.5a.5.5 0 0 0 .5.5h1a.5.5 0 0 0 .5-.5V20.5h2.5a.5.5 0 0 0 .5-.5V18.5a.5.5 0 0 0-.5-.5h-2.5v-3.278c1.61-.375 3.057-1.146 4.225-2.253a6.7 6.7 0 0 0 1.358-1.699 6.5 6.5 0 0 0 .827-4.103c-.025-3.61-2.829-6.54-6.439-6.66A7.7 7.7 0 0 0 12.504 0m-1 4a.75.75 0 1 1 0 1.5.75.75 0 0 1 0-1.5m2 0a.75.75 0 1 1 0 1.5.75.75 0 0 1 0-1.5m-1 2.5c.5 0 1 .5 1 1s-.5.5-1 .5-1 0-1-.5.5-1 1-1"/></svg>
